HIERARCHY
ROOT Hips
{
	OFFSET	0	0	0
	CHANNELS 6  Xposition Yposition Zposition Xrotation Yrotation Zrotation
	JOINT Spine
	{
		OFFSET	0	7.06441	1.42252
		CHANNELS 3  Xrotation Yrotation Zrotation
		JOINT Spine1
		{
			OFFSET	0	12.1312	-2.16628
			CHANNELS 3  Xrotation Yrotation Zrotation
			JOINT Spine2
			{
				OFFSET	0	9.19586	0.985658
				CHANNELS 3  Xrotation Yrotation Zrotation
				JOINT Spine3
				{
					OFFSET	0	11.0047	3.27108
					CHANNELS 3  Xrotation Yrotation Zrotation
					JOINT Spine4
					{
						OFFSET	0	16.2904	-1.66804
						CHANNELS 3  Xrotation Yrotation Zrotation
						JOINT Neck
						{
							OFFSET	0	7.77695	-5.4482
							CHANNELS 3  Xrotation Yrotation Zrotation
							JOINT Head
							{
								OFFSET	0	9.33667	-2.7945
								CHANNELS 3  Xrotation Yrotation Zrotation
								End Site
								{
									OFFSET	0	19.4749	-0.942332
								}
							}
						}
					}
					JOINT LeftShoulder
					{
						OFFSET	-4.67917	19.7998	-9.33667
						CHANNELS 3  Xrotation Yrotation Zrotation
						JOINT LeftArm
						{
							OFFSET	-10.2118	-2.7945	3.58522
							CHANNELS 3  Xrotation Yrotation Zrotation
							JOINT LeftForeArm
							{
								OFFSET	-34.1503	-1.55868	2.43761
								CHANNELS 3  Xrotation Yrotation Zrotation
								JOINT LeftHand
								{
									OFFSET	-28.0847	-1.94081	2.00465
									CHANNELS 3  Xrotation Yrotation Zrotation
									End Site
									{
										OFFSET	-10.2495	-0.708301	0.731552
									}
								}
							}
						}
					}
					JOINT RightShoulder
					{
						OFFSET	4.67917	19.7998	-9.33667
						CHANNELS 3  Xrotation Yrotation Zrotation
						JOINT RightArm
						{
							OFFSET	10.2118	-2.7945	3.58522
							CHANNELS 3  Xrotation Yrotation Zrotation
							JOINT RightForeArm
							{
								OFFSET	34.1503	-1.55868	2.43761
								CHANNELS 3  Xrotation Yrotation Zrotation
								JOINT RightHand
								{
									OFFSET	28.0847	-1.94081	2.00465
									CHANNELS 3  Xrotation Yrotation Zrotation
									End Site
									{
										OFFSET	10.2495	-0.708301	0.731552
									}
								}
							}
						}
					}
				}
			}
		}
	}
	JOINT LeftUpLeg
	{
		OFFSET	-9.64713	-3.53221	-0.711262
		CHANNELS 3  Xrotation Yrotation Zrotation
		JOINT LeftLeg
		{
			OFFSET	-2.16918	-42.5043	-0.664435
			CHANNELS 3  Xrotation Yrotation Zrotation
			JOINT LeftFoot
			{
				OFFSET	-2.12038	-39.0853	3.36133
				CHANNELS 3  Xrotation Yrotation Zrotation
				JOINT LeftToeBase
				{
					OFFSET	0	-4.88516	-12.975
					CHANNELS 3  Xrotation Yrotation Zrotation
					End Site
					{
						OFFSET	0	-1.95406	-7.81626
					}
				}
			}
		}
	}
	JOINT RightUpLeg
	{
		OFFSET	9.64713	-3.53221	-0.711262
		CHANNELS 3  Xrotation Yrotation Zrotation
		JOINT RightLeg
		{
			OFFSET	2.16918	-42.5043	-0.664435
			CHANNELS 3  Xrotation Yrotation Zrotation
			JOINT RightFoot
			{
				OFFSET	2.12038	-39.0853	3.36133
				CHANNELS 3  Xrotation Yrotation Zrotation
				JOINT RightToeBase
				{
					OFFSET	0	-4.88516	-12.975
					CHANNELS 3  Xrotation Yrotation Zrotation
					End Site
					{
						OFFSET	0	-1.95406	-7.81626
					}
				}
			}
		}
	}
}
MOTION
Frames: 13
Frame Time: 0.020408
 0 -10.0543 2.86711 -0 0 -0 -0 0 -0 -0 0 -0 -0 0 -0 -0 0 -0 -0 0 -0 -0 0 -0 -0 0 -0 -0 0 -0 -0 0 -0 -0 0 -0 -0 0 -0 -0 0 -0 -0 0 -0 -0 0 -0 -0 0 -0 -0 0 -0 -0 0 -0 -0 0 -0 -0 0 -0 -0 0 -0 -0 0 -0 -0 0 -0 -0 0 -0
 66.3859 90.1137 -253.153 7.62358 176.411 3.26655 0.00108592 0.0507938 -1.22474 5.45128 0.101546 -2.04123 6.90607 0.304639 -2.04126 7.97551 0.0507938 -1.22474 171.683 179.941 179.596 151.029 -173.514 -170.112 171.051 -165.916 -179.771 173.453 156.273 170.969 169.959 -96.731 -138.041 39.5983 -54.375 32.0724 -0 -1.27448 43.1312 178.126 155.697 -175.932 160.805 140.51 97.9365 60.4065 13.5505 -19.3542 -0 -12.8003 -7.7708 26.4813 49.5717 -12.1216 150.813 167.393 -179.771 20.0414 0.0282182 2.01871 0.241113 0 0 24.7761 52.9693 -22.9322 161.53 -162.263 -178.502 14.9228 0.624257 -0.307223 177.056 180 -180
 67.4419 89.9304 -252.183 7.3638 176.047 3.31634 0.00104221 0.0477308 -1.25086 5.40659 0.0954211 -2.08477 6.87206 0.286263 -2.08479 7.9787 0.0477308 -1.25086 171.592 179.939 179.588 150.814 -173.309 -170.432 170.971 -165.621 -179.913 173.833 156.466 171.469 168.699 -95.2403 -139.54 38.5815 -54.7047 31.3643 -0 -1.08294 46.6961 177.973 155.788 -175.601 159.729 139.631 98.552 60.4073 13.3801 -19.2259 -0 -12.8585 -7.3072 24.1423 49.9395 -10.3351 151.52 167.347 179.642 21.1562 -0.238132 0.636575 0.237858 0 0 23.7226 53.1038 -22.0428 160.275 -161.88 -179.125 16.3543 0.769702 -0.582311 177.116 180 -180
 68.0546 89.8112 -251.92 7.30844 176.403 3.28561 0.000628561 0.0290316 -1.24031 5.34598 0.058039 -2.06719 6.81147 0.174117 -2.0672 7.94712 0.0290316 -1.24031 171.552 179.939 179.591 150.762 -173.175 -170.848 170.945 -165.424 179.946 174.027 156.516 171.734 161.618 -94.4909 -147.434 37.9037 -55.1973 30.9183 -0 -0.9613 50.0309 177.846 155.863 -175.324 158.855 138.791 99.363 60.6357 13.616 -19.7181 -0 -12.8571 -6.98122 22.4146 50.1593 -8.88849 152.324 167.787 179.626 21.6084 -0.226687 0.428048 0.218801 0 0 23.0215 53.0473 -21.2785 159.693 -161.352 -179.251 17.0827 0.795603 -0.815986 177.17 180 -180
 68.361 89.6964 -252.025 7.48872 178.223 3.22091 0.0011438 0.0562914 -1.16404 5.16216 0.112542 -1.94007 6.60997 0.337625 -1.9401 7.76061 0.0562914 -1.16404 171.638 179.944 179.616 151.183 -173.273 -170.885 171.079 -165.495 179.969 174.383 156.504 172.238 160.173 -93.9281 -149.945 38.7214 -56.7782 32.0379 -0 -0.947504 53.7534 177.694 156.693 -174.999 158.52 137.996 99.6546 61.0014 13.9726 -20.1895 -0 -12.4629 -6.55189 22.2434 49.7259 -7.8137 152.236 168.518 179.201 21.719 -0.277668 0.258458 0.192212 0 0 23.3019 52.3315 -21.0622 158.347 -160.79 -179.353 17.7451 0.576839 -1.21716 177.22 180 -180
 68.9175 89.6978 -252.715 8.20829 179.041 3.25774 0.000386921 0.0197778 -1.12075 5.00172 0.0395422 -1.86792 6.43402 0.118627 -1.86793 7.62318 0.0197778 -1.12075 171.659 179.946 179.63 151.392 -173.249 -170.959 171.139 -165.396 179.943 174.694 156.504 172.675 158.614 -94.4295 -153.447 38.6912 -57.9519 32.4732 -0 -0.98764 57.6879 177.19 157.666 -173.911 159.107 137.584 100.469 61.5191 14.3763 -21.5404 -0 -11.7153 -6.09678 22.1331 49.7924 -6.81474 152.89 170.204 179.69 21.7025 -0.186741 -0.268584 0.177154 0 0 23.9733 51.9269 -19.8919 157.76 -160.678 -179.68 17.8338 0.474932 -2.08208 177.25 180 -180
 69.2421 89.5815 -252.935 8.33847 179.997 3.31622 180 -179.987 178.928 4.69721 -0.02578 -1.78724 6.14108 -0.07734 -1.78724 7.4682 -0.012894 -1.07234 171.448 179.947 179.647 151.075 -173.306 -170.546 171.049 -165.547 -179.942 175.178 156.681 173.327 161.884 -95.4738 -152.146 38.725 -58.8595 32.7915 -0 -1.19675 61.9181 176.645 159.245 -172.745 159.674 137.151 100.996 62.1125 14.8983 -22.9643 -0 -11.2679 -5.66342 22.8414 49.4864 -6.59286 152.098 172.089 178.868 21.8591 -0.0832222 0.287085 0.153318 0 0 24.2496 51.4244 -19.1386 156.68 -160.441 -179.77 18.2447 0.702692 -2.42156 177.302 180 -180
 69.1864 89.5626 -253.078 8.50335 179.722 3.13809 179.999 -179.95 179.011 4.45512 -0.0998759 -1.64839 5.88608 -0.299628 -1.64841 7.28125 -0.0499512 -0.989031 171.429 179.951 179.674 151.243 -173.498 -169.936 171.114 -165.79 -179.738 175.477 157.011 173.701 161.384 -96.3359 -154.407 38.2382 -59.576 32.6293 -0 -1.33291 66.0374 176.204 161.156 -171.82 160.664 136.846 100.99 62.8333 15.5876 -24.4008 -0 -10.7345 -5.14504 23.1254 49.094 -6.70742 151.787 173.671 179.037 21.7602 -0.0106242 0.460678 0.123914 0 0 24.5318 50.769 -18.744 156.149 -160.473 -179.975 18.3001 1.11594 -2.30578 177.357 180 -180
 69.0677 89.6326 -252.891 8.56854 179.331 3.12081 179.999 -179.947 179.138 4.23482 -0.106975 -1.43686 5.66278 -0.320924 -1.43688 7.1242 -0.0534981 -0.862115 171.379 179.957 179.716 151.312 -173.524 -170.154 171.136 -165.849 -179.78 175.547 157.022 173.799 160.171 -98.3097 -156.034 36.1685 -59.5576 30.4276 -0 -1.44988 70.294 175.728 163.285 -170.841 161.601 136.67 100.764 63.5368 16.08 -26.113 -0 -10.0862 -4.80155 23.0171 48.6406 -6.99538 151.917 175.724 179.33 21.5891 -0.0125187 1.49214 0.099755 0 0 24.6761 49.8883 -18.1837 155.932 -160.711 179.595 18.0813 1.35686 -2.43618 177.388 180 -180
 69.1487 89.9677 -253.3 8.96893 178.14 2.5877 180 -179.996 179.38 4.06458 -0.00813772 -1.03301 5.49874 -0.0244131 -1.03301 7.01311 -0.00406928 -0.619808 171.314 179.969 179.796 151.294 -173.6 -170.799 171.138 -166.095 -179.904 176.012 156.948 174.461 163.103 -99.5043 -153.69 34.3413 -59.4936 28.7134 -0 -1.5777 74.2691 175.252 164.845 -169.867 162.618 136.61 100.741 64.4095 16.7894 -27.8385 -0 -9.37539 -4.58709 22.6294 47.3971 -7.33521 152.662 178.843 -179.856 20.3635 -0.0955146 4.73016 0.0811268 0 0 24.8924 49.2967 -17.4837 156.607 -161.021 -179.908 16.9492 0.810031 -4.40413 177.357 180 -180
 68.8248 90.1682 -253.48 9.01515 177.872 2.78504 3.49134e-05 0.0046632 -0.428966 3.71247 0.00932593 -0.714943 5.16137 0.0279778 -0.714943 6.82094 0.0046632 -0.428966 171.097 179.978 179.859 151.018 -173.636 -171.831 171.06 -166.382 179.87 176.264 156.937 174.815 165.345 -101.353 -152.327 32.4985 -59.3939 27.0258 -0 -1.70977 78.3286 174.927 166.49 -169.233 163.347 136.612 100.469 65.0484 17.2378 -28.9034 -0 -8.64831 -4.20754 22.5796 46.5048 -8.06277 153.16 -179.341 -179.9 19.9557 -0.0693599 4.88472 0.0611016 0 0 25.9321 48.5477 -17.5372 157.178 -161.573 179.986 15.632 0.684789 -5.37276 177.363 180 -180
 68.7032 90.5424 -253.87 9.29574 178.214 2.57394 3.61219e-05 0.011706 -0.176801 3.37367 0.0234118 -0.294668 4.81867 0.0702354 -0.294668 6.58334 0.011706 -0.176801 171.011 179.991 179.942 151.105 -173.801 -173.506 171.101 -166.904 179.535 176.448 156.938 175.073 168.253 -102.65 -150.063 31.774 -60.0497 26.5417 -0 -1.88262 83.0569 174.68 168.34 -168.796 164.002 136.734 100.637 65.4246 17.5122 -29.9366 -0 -7.66861 -4.09936 22.5398 45.0254 -9.22184 154.942 -177.408 179.749 18.3942 -0.0353962 4.99079 0.0431576 0 0 26.5792 47.9774 -17.2797 157.692 -162.777 -179.995 14.1824 0.391285 -7.03335 177.369 180 -180
 68.1607 90.9692 -254.11 9.30818 178.031 2.84232 180 179.995 -179.974 3.02252 0.010879 0.0430027 4.4732 0.032637 0.0430027 6.3671 0.00543951 0.0258016 170.853 -179.999 -179.992 150.993 -173.96 -175.435 171.084 -167.487 179.138 176.605 157.513 175.235 168.171 -103.479 -151.134 30.7254 -60.5032 25.6964 -0 -1.9883 87.7812 174.749 169.393 -169.002 164.636 136.195 100.374 65.408 17.3973 -29.9831 -0 -7.00094 -3.83245 22.552 43.9256 -9.96545 156.793 -175.543 179.951 16.703 0.0540741 5.16026 0.0278101 0 0 28.7217 47.3341 -18.8501 159.225 -164.722 179.494 12.5642 -0.00166931 -10.2536 177.355 180 -180
